<svg xmlns="http://www.w3.org/2000/svg" width="14" height="18" viewBox="0 0 14 18" fill="none">
  <rect x="1" y="4.44958" width="13" height="13" rx="1" fill="#810006"/>
  <line x1="5.5" y1="4.44958" x2="5.5" y2="17.4496" stroke="#C07C0F"/>
  <line x1="1" y1="9.94958" x2="14" y2="9.94958" stroke="#C07C0F"/>
  <path d="M5.51199 4.44662C5.71683 4.66146 5.5186 5.01148 5.229 4.94631L1.85041 4.18602C1.65405 4.14183 1.55605 3.92064 1.65523 3.7455L2.64411 1.99936C2.74329 1.82423 2.98339 1.79451 3.12228 1.94018L5.51199 4.44662Z" fill="#C07C0F"/>
  <path d="M5.62096 4.70077C5.48483 4.96456 5.77352 5.24469 6.03309 5.10068L9.06136 3.42064C9.23736 3.323 9.26918 3.08316 9.12473 2.943L7.68457 1.54557C7.54013 1.40541 7.30136 1.44444 7.20907 1.6233L5.62096 4.70077Z" fill="#C07C0F"/>
</svg>